HIERARCHY
ROOT joint_Root
{
	OFFSET 0.0 0.0 0.0
	CHANNELS 6 Xposition Yposition Zposition Zrotation Xrotation Yrotation 
	JOINT Hips
	{
		OFFSET 4.5925 91.4895 -427.239
		CHANNELS 6 Xposition Yposition Zposition Zrotation Xrotation Yrotation 
		JOINT Spine
		{
			OFFSET 15.7357 0.0 0.0
			CHANNELS 6 Xposition Yposition Zposition Zrotation Xrotation Yrotation 
			JOINT Chest
			{
				OFFSET 8.98455 -0.406207 0.0
				CHANNELS 6 Xposition Yposition Zposition Zrotation Xrotation Yrotation 
				JOINT Neck
				{
					OFFSET 16.3773 0.0 0.0
					CHANNELS 6 Xposition Yposition Zposition Zrotation Xrotation Yrotation 
					JOINT Head
					{
						OFFSET 6.45672 0.0 0.0
						CHANNELS 6 Xposition Yposition Zposition Zrotation Xrotation Yrotation 
						End Site
						{
							OFFSET 0.0 0.0 0.0
						}
					}
				}
				JOINT Shoulder_L
				{
					OFFSET 12.9942 -0.242716 4.98039
					CHANNELS 6 Xposition Yposition Zposition Zrotation Xrotation Yrotation 
					JOINT UpperArm_L
					{
						OFFSET 5.34809 0.0 0.0
						CHANNELS 6 Xposition Yposition Zposition Zrotation Xrotation Yrotation 
						JOINT LowerArm_L
						{
							OFFSET 24.3286 1.87007e-05 0.0
							CHANNELS 6 Xposition Yposition Zposition Zrotation Xrotation Yrotation 
							JOINT Hand_L
							{
								OFFSET 22.2916 0.0 0.0
								CHANNELS 6 Xposition Yposition Zposition Zrotation Xrotation Yrotation 
								End Site
								{
									OFFSET 0.0 0.0 0.0
								}
							}
						}
					}
				}
				JOINT Shoulder_R
				{
					OFFSET 12.9945 -0.242716 -4.98039
					CHANNELS 6 Xposition Yposition Zposition Zrotation Xrotation Yrotation 
					JOINT UpperArm_R
					{
						OFFSET -5.34813 0.0 0.0
						CHANNELS 6 Xposition Yposition Zposition Zrotation Xrotation Yrotation 
						JOINT LowerArm_R
						{
							OFFSET -24.3289 0.000322201 0.0
							CHANNELS 6 Xposition Yposition Zposition Zrotation Xrotation Yrotation 
							JOINT Hand_R
							{
								OFFSET -22.2915 -0.000108084 0.0
								CHANNELS 6 Xposition Yposition Zposition Zrotation Xrotation Yrotation 
								End Site
								{
									OFFSET 0.0 0.0 0.0
								}
							}
						}
					}
				}
			}
		}
		JOINT UpperLeg_L
		{
			OFFSET -2.19248 -6.46944 0.0
			CHANNELS 6 Xposition Yposition Zposition Zrotation Xrotation Yrotation 
			JOINT LowerLeg_L
			{
				OFFSET 39.0811 0.0 -1.23785e-05
				CHANNELS 6 Xposition Yposition Zposition Zrotation Xrotation Yrotation 
				JOINT Foot_L
				{
					OFFSET 40.9854 0.0 -1.26872e-05
					CHANNELS 6 Xposition Yposition Zposition Zrotation Xrotation Yrotation 
					JOINT Toes_L
					{
						OFFSET 11.7543 0.0 0.0
						CHANNELS 6 Xposition Yposition Zposition Zrotation Xrotation Yrotation 
						End Site
						{
							OFFSET 0.0 0.0 0.0
						}
					}
				}
			}
		}
		JOINT UpperLeg_R
		{
			OFFSET -2.19251 6.46944 0.0
			CHANNELS 6 Xposition Yposition Zposition Zrotation Xrotation Yrotation 
			JOINT LowerLeg_R
			{
				OFFSET -39.0811 -0.00228153 -0.0401928
				CHANNELS 6 Xposition Yposition Zposition Zrotation Xrotation Yrotation 
				JOINT Foot_R
				{
					OFFSET -40.9854 0.0 0.0
					CHANNELS 6 Xposition Yposition Zposition Zrotation Xrotation Yrotation 
					JOINT Toes_R
					{
						OFFSET -11.7543 0.0 0.0
						CHANNELS 6 Xposition Yposition Zposition Zrotation Xrotation Yrotation 
						End Site
						{
							OFFSET 0.0 0.0 0.0
						}
					}
				}
			}
		}
	}
}
MOTION
Frames:	7
Frame Time:	0.0333333
0.000000 0.000000 0.000000 0.000000 0.000000 -0.000000 -0.673229 90.275300 -3.316310 89.142800 -2.562170 11.881500 15.735700 0.000005 -0.000001 89.696800 76.987100 -89.808500 8.984550 -0.406207 -0.000000 18.259200 -0.145321 -0.200565 16.377300 -0.000001 -0.000001 6.544220 -4.526290 1.555160 6.456720 -0.000001 -0.000000 -4.440300 -4.502450 -1.113930 12.994200 -0.242716 4.980390 -91.229600 6.217410 -78.789800 5.348090 -0.000007 -0.000001 -54.673700 36.143400 -31.308200 24.328600 0.000019 0.000005 8.210540 19.859700 -23.012400 22.291600 -0.000001 0.000005 13.820400 5.171360 3.427280 12.994500 -0.242716 -4.980390 89.448100 10.069000 -86.846200 -5.348130 -0.000001 -0.000004 -55.229600 36.757600 -25.823300 -24.328900 0.000322 -0.000009 1.348960 3.661760 -20.254000 -22.291500 -0.000108 -0.000004 14.942900 5.402390 -3.015060 -2.192480 -6.469440 -0.000000 -174.060000 -11.855100 -2.225860 39.081100 -0.000007 -0.000012 -0.191596 0.277992 34.575500 40.985400 -0.000006 -0.000013 0.465182 5.631000 -70.227500 11.754300 -0.000000 0.000003 -0.000087 -0.000910 -16.612600 -2.192510 6.469440 -0.000001 174.704000 19.782200 179.239000 -39.081100 -0.002282 -0.040193 -0.171175 0.260958 33.765700 -40.985400 0.000008 0.000006 4.483390 11.509900 -70.953400 -11.754300 -0.000006 -0.000006 -0.003152 -0.042305 -18.293600
0.000000 0.000000 0.000000 0.000000 0.000000 -0.000000 -0.679734 90.280700 -3.337770 89.149600 -2.539430 11.932800 15.735700 0.000005 -0.000001 89.716900 76.956400 -89.824600 8.984550 -0.406207 -0.000000 18.320800 -0.136306 -0.193892 16.377300 -0.000001 -0.000001 6.482920 -4.551050 1.565620 6.456720 -0.000001 -0.000000 -4.475890 -4.503190 -1.097320 12.994200 -0.242716 4.980390 -91.246700 6.256540 -78.707200 5.348090 -0.000007 -0.000001 -54.612200 35.449600 -31.235100 24.328600 0.000019 0.000005 8.416980 19.697100 -23.702200 22.291600 -0.000001 0.000005 14.232800 5.164860 3.585080 12.994500 -0.242716 -4.980390 89.439400 10.118100 -86.811900 -5.348130 -0.000001 -0.000004 -55.111700 36.770700 -25.874400 -24.328900 0.000322 -0.000009 1.337540 3.640490 -20.204200 -22.291500 -0.000108 -0.000004 14.983300 5.403050 -3.036690 -2.192480 -6.469440 -0.000000 -174.053000 -11.851300 -2.178630 39.081100 -0.000007 -0.000012 -0.192612 0.279744 34.548900 40.985400 -0.000006 -0.000013 0.464476 5.645810 -70.196400 11.754300 -0.000000 0.000003 -0.000090 -0.000936 -16.613600 -2.192510 6.469440 -0.000001 174.695000 19.774700 179.282000 -39.081100 -0.002282 -0.040193 -0.167707 0.255933 33.749000 -40.985400 0.000008 0.000006 4.483650 11.484700 -70.928800 -11.754300 -0.000006 -0.000006 -0.003064 -0.041326 -18.253800
0.000000 0.000000 0.000000 0.000000 0.000000 -0.000000 -0.683892 90.278900 -3.368330 89.160600 -2.473790 11.945600 15.735700 0.000005 -0.000001 89.682400 76.940100 -89.783300 8.984550 -0.406207 -0.000000 18.353200 -0.151303 -0.177697 16.377300 -0.000001 -0.000001 6.396640 -4.558780 1.542240 6.456720 -0.000001 -0.000000 -4.484970 -4.509290 -1.018050 12.994200 -0.242716 4.980390 -91.277200 6.315040 -78.542400 5.348090 -0.000007 -0.000001 -54.475600 34.640600 -31.332300 24.328600 0.000019 0.000005 8.690570 19.718000 -24.372600 22.291600 -0.000001 0.000005 14.546100 5.160450 3.692230 12.994500 -0.242716 -4.980390 89.428500 10.186500 -86.771900 -5.348130 -0.000001 -0.000004 -54.995300 36.732500 -25.901100 -24.328900 0.000322 -0.000009 1.353970 3.692780 -20.166300 -22.291500 -0.000108 -0.000004 14.975300 5.402380 -3.015040 -2.192480 -6.469440 -0.000000 -174.071000 -11.802000 -2.203830 39.081100 -0.000007 -0.000012 -0.194262 0.282033 34.559000 40.985400 -0.000006 -0.000013 0.466965 5.661150 -70.174600 11.754300 -0.000000 0.000003 -0.000084 -0.000886 -16.611700 -2.192510 6.469440 -0.000001 174.679000 19.794900 179.278000 -39.081100 -0.002282 -0.040193 -0.171112 0.260887 33.763300 -40.985400 0.000008 0.000006 4.452820 11.463200 -70.917500 -11.754300 -0.000006 -0.000006 -0.003094 -0.041659 -18.267400
0.000000 0.000000 0.000000 0.000000 0.000000 -0.000000 -0.690834 90.278700 -3.391070 89.168400 -2.446940 11.938900 15.735700 0.000005 -0.000001 89.725300 76.930300 -89.814200 8.984550 -0.406207 -0.000000 18.373000 -0.131118 -0.157001 16.377300 -0.000001 -0.000001 6.319610 -4.579860 1.556840 6.456720 -0.000001 -0.000000 -4.529360 -4.532450 -1.000610 12.994200 -0.242716 4.980390 -91.305700 6.378140 -78.405600 5.348090 -0.000007 -0.000001 -54.423700 33.610400 -31.419700 24.328600 0.000019 0.000005 8.955520 19.697200 -25.058400 22.291600 -0.000001 0.000005 14.695600 5.162580 3.640490 12.994500 -0.242716 -4.980390 89.416800 10.256300 -86.727700 -5.348130 -0.000001 -0.000004 -54.921600 36.619200 -25.869800 -24.328900 0.000322 -0.000009 1.352910 3.686050 -20.185600 -22.291500 -0.000108 -0.000004 15.047500 5.402620 -3.022790 -2.192480 -6.469440 -0.000000 -174.077000 -11.798700 -2.234730 39.081100 -0.000007 -0.000012 -0.193656 0.281123 34.562000 40.985400 -0.000006 -0.000013 0.474746 5.702750 -70.155400 11.754300 -0.000000 0.000003 -0.000081 -0.000858 -16.610600 -2.192510 6.469440 -0.000001 174.685000 19.775500 179.251000 -39.081100 -0.002282 -0.040193 -0.173110 0.263846 33.766300 -40.985400 0.000008 0.000006 4.386240 11.425800 -70.888400 -11.754300 -0.000006 -0.000006 -0.003065 -0.041339 -18.254300
0.000000 0.000000 0.000000 0.000000 0.000000 -0.000000 -0.690984 90.284300 -3.424280 89.163500 -2.395210 11.954800 15.735700 0.000005 -0.000001 89.732400 76.910100 -89.804000 8.984550 -0.406207 -0.000000 18.413500 -0.126536 -0.123022 16.377300 -0.000001 -0.000001 6.221480 -4.604020 1.572730 6.456720 -0.000001 -0.000000 -4.572870 -4.571780 -0.945235 12.994200 -0.242716 4.980390 -91.331200 6.423570 -78.265800 5.348090 -0.000007 -0.000001 -54.442000 32.411200 -31.478000 24.328600 0.000019 0.000005 9.326780 19.712900 -25.961300 22.291600 -0.000001 0.000005 15.083400 5.157160 3.770680 12.994500 -0.242716 -4.980390 89.405100 10.329300 -86.686000 -5.348130 -0.000001 -0.000004 -54.836300 36.510300 -25.839900 -24.328900 0.000322 -0.000009 1.384270 3.759610 -20.244600 -22.291500 -0.000108 -0.000004 15.070000 5.401860 -2.998130 -2.192480 -6.469440 -0.000000 -174.082000 -11.781300 -2.249970 39.081100 -0.000007 -0.000012 -0.193016 0.280327 34.549400 40.985400 -0.000006 -0.000013 0.484413 5.716950 -70.116000 11.754300 -0.000000 0.000003 -0.000085 -0.000899 -16.612100 -2.192510 6.469440 -0.000001 174.696000 19.809600 179.256000 -39.081100 -0.002282 -0.040193 -0.167429 0.255421 33.758900 -40.985400 0.000008 0.000006 4.490940 11.390600 -70.892800 -11.754300 -0.000006 -0.000006 -0.003160 -0.042394 -18.297300
0.000000 0.000000 0.000000 0.000000 0.000000 -0.000000 -0.692071 90.281200 -3.450130 89.154700 -2.385030 11.984300 15.735700 0.000005 -0.000001 89.742400 76.883300 -89.792800 8.984550 -0.406207 -0.000000 18.467100 -0.120373 -0.081546 16.377300 -0.000001 -0.000001 6.128590 -4.610890 1.610340 6.456720 -0.000001 -0.000000 -4.676020 -4.586920 -0.960383 12.994200 -0.242716 4.980390 -91.376600 6.526520 -78.062300 5.348090 -0.000007 -0.000001 -54.338900 31.137200 -31.589900 24.328600 0.000019 0.000005 9.796520 19.727400 -27.091400 22.291600 -0.000001 0.000005 15.581200 5.148410 3.981360 12.994500 -0.242716 -4.980390 89.397800 10.344200 -86.649800 -5.348130 -0.000001 -0.000004 -54.702600 36.488700 -25.914100 -24.328900 0.000322 -0.000009 1.353350 3.673200 -20.256400 -22.291500 -0.000108 -0.000004 14.981000 5.402380 -3.015100 -2.192480 -6.469440 -0.000000 -174.080000 -11.717500 -2.249690 39.081100 -0.000007 -0.000012 -0.192131 0.278806 34.571900 40.985400 -0.000006 -0.000013 0.474552 5.695000 -70.112600 11.754300 -0.000000 0.000003 -0.000089 -0.000932 -16.613400 -2.192510 6.469440 -0.000001 174.699000 19.817800 179.261000 -39.081100 -0.002282 -0.040193 -0.169845 0.258968 33.765700 -40.985400 0.000008 0.000006 4.419990 11.396100 -70.857000 -11.754300 -0.000006 -0.000006 -0.003155 -0.042346 -18.295300
0.000000 0.000000 0.000000 0.000000 0.000000 -0.000000 -0.684334 90.281900 -3.476200 89.173300 -2.397720 11.994100 15.735700 0.000005 -0.000001 89.824200 76.865500 -89.862100 8.984550 -0.406207 -0.000000 18.502700 -0.082582 -0.062558 16.377300 -0.000001 -0.000001 6.057110 -4.630430 1.648650 6.456720 -0.000001 -0.000000 -4.799720 -4.621290 -0.921471 12.994200 -0.242716 4.980390 -91.416000 6.614390 -77.888500 5.348090 -0.000007 -0.000001 -54.423200 29.598000 -31.602700 24.328600 0.000019 0.000005 10.306200 19.664200 -28.385900 22.291600 -0.000001 0.000005 16.055300 5.146680 4.022180 12.994500 -0.242716 -4.980390 89.383700 10.388400 -86.586000 -5.348130 -0.000001 -0.000004 -54.582300 36.447100 -25.947000 -24.328900 0.000322 -0.000009 1.335420 3.616910 -20.295400 -22.291500 -0.000108 -0.000004 15.041800 5.402160 -3.007780 -2.192480 -6.469440 -0.000000 -174.104000 -11.752600 -2.253390 39.081100 -0.000007 -0.000012 -0.190194 0.276046 34.566900 40.985400 -0.000006 -0.000013 0.481085 5.676970 -70.093700 11.754300 -0.000000 0.000003 -0.000080 -0.000851 -16.610400 -2.192510 6.469440 -0.000001 174.674000 19.793300 179.247000 -39.081100 -0.002282 -0.040193 -0.172354 0.262630 33.774900 -40.985400 0.000008 0.000006 4.396970 11.411900 -70.839700 -11.754300 -0.000006 -0.000006 -0.003082 -0.041522 -18.261800
